<?xml version="1.0" encoding="UTF-8"?>
<!-- Generator: Adobe Illustrator 21.1.0, SVG Export Plug-In . SVG Version: 6.00 Build 0)  -->
<svg enable-background="new 0 0 550 140" version="1.1" viewBox="0 0 550 140" xml:space="preserve" xmlns="http://www.w3.org/2000/svg" xmlns:cc="http://creativecommons.org/ns#" xmlns:dc="http://purl.org/dc/elements/1.1/" xmlns:rdf="http://www.w3.org/1999/02/22-rdf-syntax-ns#">
<style type="text/css">
	.st0{fill:#414042;}
	.st1{fill:#F37021;}
</style>
<title>Prancheta 1 cópia 2</title>











<path class="st0" d="m511.7 54.3c0.3-1 1.3-2 2.3-2h9.7l1.3-7.3h-11.7l1.3-7.3h-9.3l-6.3 34.6-1.3 6.7c-1 5.7 2.7 11.3 8.7 12.3 0.7 0 1.3 0.3 2 0.3h11l1.3-7h-11.7c-1.3 0-2.3-1-2.3-2.3v-0.3zm-16.4-5.3c-2-2.3-5-3.7-8-3.7h-11c-5 0-9.3 3.7-10.3 8.7l-4.7 26c-1 5.7 2.7 11 8.3 12 0.7 0 1.3 0.3 2 0.3h18.4l1.3-7h-19c-1 0-2-1-2-2v-0.3l1-5.3h14c5 0 9.3-3.7 10.3-8.7l2-11c0.4-3.4-0.3-6.7-2.3-9zm-6.6 6-2.3 13c-0.3 1-1 1.7-2 1.7h-11.7l3-15.7c0.3-1 1-1.7 2-1.7h9.3c1 0 2 1 2 2-0.3 0.3-0.3 0.7-0.3 0.7zm-30-6c-2-2.3-5-3.7-8-3.7h-11c-5 0-9.3 3.7-10.3 8.7l-7 38.3h9.3l7-37.7c0.3-1 1-1.7 2-1.7h9.3c1 0 2 1 2 2v0.3l-6.7 37h9.3l6.4-34.2c0.3-3.4-0.3-6.7-2.3-9zm-78.4-11-1 7.3h9.4l1-7.3zm-2 11.3-7.6 42.4h9.3l7.7-42.4zm-22.6 5c0.3-1 1.3-2 2.3-2h14.3l1.3-7.3h-16.6c-5 0-9.7 3.7-10.7 8.7l-4.6 25.3c-1 5.7 2.7 11.3 8.7 12.3 0.7 0 1.3 0.3 2 0.3h12.6l1.3-7h-13.7c-1.3 0-2.3-1-2.3-2.3v-0.3zm65.6-5.3c-2-2.3-5-3.7-8-3.7h-15l-1.3 7h15.7c1 0 2 1 2 2v0.3l-1 5.3h-14c-5 0-9.3 3.7-10.3 8.7l-2 11c-1 5.7 2.7 11 8.3 12 0.7 0 1.3 0.3 2 0.3h11c5 0 9.3-3.7 10.3-8.7l4.7-26c0.6-2.6-0.4-5.9-2.4-8.2zm-13.6 36h-9.3c-1 0-2-1-2-2v-0.3l2.3-13c0.3-1 1-1.7 2-1.7h11.7l-3 15.7c-0.1 0.3-0.7 1-1.7 1.3zm-105.4-36c-2-2.3-5-3.7-8-3.7h-11c-5 0-9.3 3.7-10.3 8.7l-4.7 26c-1 5.7 2.7 11 8.3 12 0.7 0 1.3 0.3 2 0.3h18.4l1.3-7h-19c-1 0-2-1-2-2v-0.3l1-5.3h14c5 0 9.3-3.7 10.3-8.7l2-11c0.7-3.4-0.3-6.7-2.3-9zm-6.6 6-2.3 13c-0.3 1-1 1.7-2 1.7h-11.7l2.7-15.7c0.3-1 1-1.7 2-1.7h9.3c1 0 2 1 2 2v0.7zm-56.7-6c-2-2.3-5-3.7-8-3.7h-11c-5 0-9.3 3.7-10.3 8.7l-4.7 26c-1 5.7 2.7 11 8.3 12 0.7 0 1.3 0.3 2 0.3h18.3l1-7h-19c-1 0-2-1-2-2v-0.3l1-5.3h14c5 0 9.3-3.7 10.3-8.7l2-11c1.1-3.4 0.1-6.7-1.9-9zm-6.7 6-2.3 13c-0.3 1-1 1.7-2 1.7h-11.7l2.7-15.7c0.3-1 1-1.7 2-1.7h9.3c1 0 2 1 2 2v0.7zm24.4-9.7c-5 0-9.3 3.7-10.3 8.7l-7 38.3h9.3l7-37.7c0.3-1 1-1.7 2-1.7h12.3l1.3-7.3-14.6-0.3zm82.3 3.7c-2-2.3-5-3.7-8-3.7h-11c-5 0-9.3 3.7-10.3 8.7l-7 38.3h9.3l7-37.7c0.3-1 1-1.7 2-1.7h9.3c1 0 2 1 2 2v0.3l-6.7 37h9.3l6.3-34.3c0.5-3.3-0.2-6.6-2.2-8.9zm-174.7 61.7h22.3c5 0 9.3-3.7 10.3-8.7l8-44.3c1-5.7-2.7-11-8.3-12-0.7 0-1.3-0.3-1.7-0.3h-11c-5 0-9.3 3.7-10.3 8.7l-4.6 25.9c-1 5.7 2.7 11 8.3 12 0.7 0 1.3 0.3 2 0.3h10.3l-1.6 9.7c-0.3 1-1 1.7-2 1.7h-20zm32-55.7-5.7 30h-11c-1 0-2-1-2-2v-0.3l5.3-28.3c0.3-1 1-1.7 2-1.7h9.3c1.1-0.1 2.1 0.9 2.1 2.3z"/>


<path class="st1" d="m69.3 93h-37l-7.3 17.3h39c10.3 0 20.7 1.7 30.3 4.7l33.3 10.3 4-22.3-45.6-8c-5.3-1.7-11-2-16.7-2zm-34.6-5.7h42.7l56.7 3 5.7-31-58.5 10.4c-4 0.7-8 1-12 1h-27.6zm49-25 58.3-15.7 5.7-31.7-61.7 26.7c-8.7 3.7-17.7 5.7-27 5.7h-7.7l-7.3 17.4h21.7c6.3 0 12-0.7 18-2.4z"/>
<metadata><rdf:RDF><cc:Work rdf:about=""><dc:title>Prancheta 1 cópia 2</dc:title></cc:Work></rdf:RDF></metadata></svg>
